{
    "asset" : {
        "generator" : "Khronos glTF Blender I/O v3.4.49",
        "version" : "2.0"
    },
    "extensionsUsed" : [
        "KHR_materials_specular",
        "KHR_materials_ior"
    ],
    "scene" : 1,
    "scenes" : [
        {
            "extras" : {
                "svg_export" : {},
                "animax_collection" : {},
                "NWBusyDrawing" : "",
                "NWLazySource" : "Viewer",
                "NWLazyTarget" : "Composite",
                "paper_model" : {
                    "use_auto_scale" : 0
                },
                "texToolsSettings" : {},
                "print_3d" : {
                    "export_path" : "//"
                },
                "principled_baker_settings" : {
                    "bake_mode" : 0
                },
                "principled_baker_suffixlist" : [
                    {
                        "name" : "Color",
                        "suffix" : "_color"
                    },
                    {
                        "name" : "Metallic",
                        "suffix" : "_metallic"
                    },
                    {
                        "name" : "Roughness",
                        "suffix" : "_roughness"
                    },
                    {
                        "name" : "Normal",
                        "suffix" : "_normal"
                    },
                    {
                        "name" : "Displacement",
                        "suffix" : "_disp"
                    },
                    {
                        "name" : "Alpha",
                        "suffix" : "_alpha"
                    },
                    {
                        "name" : "Emission",
                        "suffix" : "_emission"
                    },
                    {
                        "name" : "Ambient Occlusion",
                        "suffix" : "_ao"
                    },
                    {
                        "name" : "Diffuse",
                        "suffix" : "_diffuse"
                    },
                    {
                        "name" : "Glossiness",
                        "suffix" : "_glossiness"
                    },
                    {
                        "name" : "Bump",
                        "suffix" : "_bump"
                    },
                    {
                        "name" : "Vertex Color",
                        "suffix" : "_vertex"
                    },
                    {
                        "name" : "Material ID",
                        "suffix" : "_MatID"
                    },
                    {
                        "name" : "Wireframe",
                        "suffix" : "_wireframe"
                    },
                    {
                        "name" : "Subsurface",
                        "suffix" : "_subsurface"
                    },
                    {
                        "name" : "Subsurface Radius",
                        "suffix" : "_subsurface_radius"
                    },
                    {
                        "name" : "Subsurface Color",
                        "suffix" : "_subsurface_color"
                    },
                    {
                        "name" : "Specular",
                        "suffix" : "_specular"
                    },
                    {
                        "name" : "Specular Tint",
                        "suffix" : "_specular_tint"
                    },
                    {
                        "name" : "Anisotropic",
                        "suffix" : "_anisotropic"
                    },
                    {
                        "name" : "Anisotropic Rotation",
                        "suffix" : "_anisotropic_rotation"
                    },
                    {
                        "name" : "Sheen",
                        "suffix" : "_sheen"
                    },
                    {
                        "name" : "Sheen Tint",
                        "suffix" : "_sheen_tint"
                    },
                    {
                        "name" : "Clearcoat",
                        "suffix" : "_clearcoat"
                    },
                    {
                        "name" : "Clearcoat Roughness",
                        "suffix" : "_clearcoat_roughness"
                    },
                    {
                        "name" : "IOR",
                        "suffix" : "_ior"
                    },
                    {
                        "name" : "Transmission",
                        "suffix" : "_transmission"
                    },
                    {
                        "name" : "Transmission Roughness",
                        "suffix" : "_transmission_roughness"
                    },
                    {
                        "name" : "Clearcoat Normal",
                        "suffix" : "_clearcoat_normal"
                    },
                    {
                        "name" : "Tangent",
                        "suffix" : "_tangent"
                    }
                ],
                "uuid" : "a27d3b7d-67fb-452d-894b-406426997086",
                "assets reported" : {},
                "power_sequencer" : {},
                "BakeLabProps" : {},
                "bsurfaces" : {
                    "SURFSK_mesh" : {}
                }
            },
            "name" : "mask AR"
        },
        {
            "extras" : {
                "svg_export" : {},
                "animax_collection" : {},
                "NWBusyDrawing" : "",
                "NWLazySource" : "Viewer",
                "NWLazyTarget" : "Composite",
                "paper_model" : {
                    "use_auto_scale" : 0
                },
                "texToolsSettings" : {},
                "print_3d" : {
                    "export_path" : "//"
                },
                "principled_baker_settings" : {
                    "bake_mode" : 0
                },
                "principled_baker_suffixlist" : [
                    {
                        "name" : "Color",
                        "suffix" : "_color"
                    },
                    {
                        "name" : "Metallic",
                        "suffix" : "_metallic"
                    },
                    {
                        "name" : "Roughness",
                        "suffix" : "_roughness"
                    },
                    {
                        "name" : "Normal",
                        "suffix" : "_normal"
                    },
                    {
                        "name" : "Displacement",
                        "suffix" : "_disp"
                    },
                    {
                        "name" : "Alpha",
                        "suffix" : "_alpha"
                    },
                    {
                        "name" : "Emission",
                        "suffix" : "_emission"
                    },
                    {
                        "name" : "Ambient Occlusion",
                        "suffix" : "_ao"
                    },
                    {
                        "name" : "Diffuse",
                        "suffix" : "_diffuse"
                    },
                    {
                        "name" : "Glossiness",
                        "suffix" : "_glossiness"
                    },
                    {
                        "name" : "Bump",
                        "suffix" : "_bump"
                    },
                    {
                        "name" : "Vertex Color",
                        "suffix" : "_vertex"
                    },
                    {
                        "name" : "Material ID",
                        "suffix" : "_MatID"
                    },
                    {
                        "name" : "Wireframe",
                        "suffix" : "_wireframe"
                    },
                    {
                        "name" : "Subsurface",
                        "suffix" : "_subsurface"
                    },
                    {
                        "name" : "Subsurface Radius",
                        "suffix" : "_subsurface_radius"
                    },
                    {
                        "name" : "Subsurface Color",
                        "suffix" : "_subsurface_color"
                    },
                    {
                        "name" : "Specular",
                        "suffix" : "_specular"
                    },
                    {
                        "name" : "Specular Tint",
                        "suffix" : "_specular_tint"
                    },
                    {
                        "name" : "Anisotropic",
                        "suffix" : "_anisotropic"
                    },
                    {
                        "name" : "Anisotropic Rotation",
                        "suffix" : "_anisotropic_rotation"
                    },
                    {
                        "name" : "Sheen",
                        "suffix" : "_sheen"
                    },
                    {
                        "name" : "Sheen Tint",
                        "suffix" : "_sheen_tint"
                    },
                    {
                        "name" : "Clearcoat",
                        "suffix" : "_clearcoat"
                    },
                    {
                        "name" : "Clearcoat Roughness",
                        "suffix" : "_clearcoat_roughness"
                    },
                    {
                        "name" : "IOR",
                        "suffix" : "_ior"
                    },
                    {
                        "name" : "Transmission",
                        "suffix" : "_transmission"
                    },
                    {
                        "name" : "Transmission Roughness",
                        "suffix" : "_transmission_roughness"
                    },
                    {
                        "name" : "Clearcoat Normal",
                        "suffix" : "_clearcoat_normal"
                    },
                    {
                        "name" : "Tangent",
                        "suffix" : "_tangent"
                    }
                ],
                "uuid" : "a27d3b7d-67fb-452d-894b-406426997086",
                "assets reported" : {},
                "power_sequencer" : {},
                "BakeLabProps" : {},
                "bsurfaces" : {
                    "SURFSK_mesh" : {}
                },
                "blosm" : {
                    "defaultLevels" : [
                        {
                            "levels" : 4,
                            "weight" : 10
                        },
                        {
                            "levels" : 5,
                            "weight" : 40
                        },
                        {
                            "levels" : 6,
                            "weight" : 10
                        }
                    ]
                }
            },
            "name" : "mask AR.001",
            "nodes" : [
                0
            ]
        }
    ],
    "nodes" : [
        {
            "mesh" : 0,
            "name" : "mascara_concierto",
            "scale" : [
                1.100307583808899,
                1.100307583808899,
                1.100307583808899
            ]
        }
    ],
    "animations" : [
        {
            "channels" : [
                {
                    "sampler" : 0,
                    "target" : {
                        "node" : 0,
                        "path" : "scale"
                    }
                }
            ],
            "name" : "mascara_conciertoAction",
            "samplers" : [
                {
                    "input" : 4,
                    "interpolation" : "LINEAR",
                    "output" : 5
                }
            ]
        }
    ],
    "materials" : [
        {
            "alphaMode" : "BLEND",
            "doubleSided" : true,
            "extensions" : {
                "KHR_materials_specular" : {
                    "specularColorFactor" : [
                        0,
                        0,
                        0
                    ]
                },
                "KHR_materials_ior" : {
                    "ior" : 1.4500000476837158
                }
            },
            "name" : "mascara_concierto",
            "pbrMetallicRoughness" : {
                "baseColorTexture" : {
                    "index" : 0
                },
                "metallicFactor" : 0
            }
        }
    ],
    "meshes" : [
        {
            "name" : "mascara_concierto",
            "primitives" : [
                {
                    "attributes" : {
                        "POSITION" : 0,
                        "TEXCOORD_0" : 1,
                        "NORMAL" : 2
                    },
                    "indices" : 3,
                    "material" : 0
                }
            ]
        }
    ],
    "textures" : [
        {
            "sampler" : 0,
            "source" : 0
        }
    ],
    "images" : [
        {
            "bufferView" : 4,
            "mimeType" : "image/png",
            "name" : "video"
        }
    ],
    "accessors" : [
        {
            "bufferView" : 0,
            "componentType" : 5126,
            "count" : 4,
            "max" : [
                0.8888888955116272,
                0,
                0.5
            ],
            "min" : [
                -0.8888888955116272,
                0,
                -0.5
            ],
            "type" : "VEC3"
        },
        {
            "bufferView" : 1,
            "componentType" : 5126,
            "count" : 4,
            "type" : "VEC2"
        },
        {
            "bufferView" : 2,
            "componentType" : 5126,
            "count" : 4,
            "type" : "VEC3"
        },
        {
            "bufferView" : 3,
            "componentType" : 5123,
            "count" : 6,
            "type" : "SCALAR"
        },
        {
            "bufferView" : 5,
            "componentType" : 5126,
            "count" : 428,
            "max" : [
                17.791666666666668
            ],
            "min" : [
                0
            ],
            "type" : "SCALAR"
        },
        {
            "bufferView" : 6,
            "componentType" : 5126,
            "count" : 428,
            "type" : "VEC3"
        }
    ],
    "bufferViews" : [
        {
            "buffer" : 0,
            "byteLength" : 48,
            "byteOffset" : 0,
            "target" : 34962
        },
        {
            "buffer" : 0,
            "byteLength" : 32,
            "byteOffset" : 48,
            "target" : 34962
        },
        {
            "buffer" : 0,
            "byteLength" : 48,
            "byteOffset" : 80,
            "target" : 34962
        },
        {
            "buffer" : 0,
            "byteLength" : 12,
            "byteOffset" : 128,
            "target" : 34963
        },
        {
            "buffer" : 0,
            "byteLength" : 39688,
            "byteOffset" : 140
        },
        {
            "buffer" : 0,
            "byteLength" : 1712,
            "byteOffset" : 39828
        },
        {
            "buffer" : 0,
            "byteLength" : 5136,
            "byteOffset" : 41540
        }
    ],
    "samplers" : [
        {
            "magFilter" : 9729,
            "minFilter" : 9987,
            "wrapS" : 33071,
            "wrapT" : 33071
        }
    ],
    "buffers" : [
        {
            "byteLength" : 46676,
            "uri" : "data:application/octet-stream;base64,"
        }
    ]
}
